<svg width="256" height="256" viewBox="0 0 256 256" fill="none" xmlns="http://www.w3.org/2000/svg">
<circle cx="128" cy="128" r="125" fill="#014C83"/>
<path d="M85.5488 196.62V66.2866H135.33C144.813 66.2866 153.365 67.969 160.987 71.3345C168.609 74.6992 174.61 79.626 178.991 86.1159C183.432 92.5457 185.652 100.417 185.652 109.731C185.652 118.324 183.732 125.715 179.892 131.904C176.11 138.033 170.739 142.751 163.777 146.055C156.876 149.3 148.714 150.922 139.292 150.922H116.336V196.62H85.5488ZM116.066 127.668H138.391C143.853 127.668 148.353 125.745 151.895 121.899C155.495 117.994 157.296 113.396 157.296 108.109C157.296 102.641 155.375 98.1643 151.534 94.6786C147.754 91.1337 143.283 89.3612 138.122 89.3612H116.066V127.668Z" fill="#17C7FF"/>
</svg>
